# xmcd
#
# Track frame offsets: 
#        150
#        20369
#        48505
#        74817
#        96866
#        123792
#        152476
#        173413
#        191524
#        209286
#        224135
#
# Disc length: 3411 seconds
#
# Revision: 2
# Processed by: cddbd v1.5.2PL0 Copyright (c) Steve Scherf et al.
# Submitted via: ExactAudioCopy v0.99pb4
#
DISCID=9a0d510b
DTITLE=Otis Rush - Any Place I'm Going
DYEAR=1998
DGENRE=Blues
TTITLE0=You Fired Yourself
TTITLE1=Keep On Loving Me Baby
TTITLE2=Part Time Love
TTITLE3=I Got The Blues
TTITLE4=The Right Time
TTITLE5=Looking Back
TTITLE6=Any Place I'm Going
TTITLE7=Laughin' And Clowin'
TTITLE8=Pride  and Joy
TTITLE9=Have You Ever Had The Blues
TTITLE10=Walking the Back Streets and Crying
EXTD=
EXTT0=
EXTT1=
EXTT2=
EXTT3=
EXTT4=
EXTT5=
EXTT6=
EXTT7=
EXTT8=
EXTT9=
EXTT10=
PLAYORDER=
